<svg width="45" height="53" viewBox="0 0 45 53" fill="none" xmlns="http://www.w3.org/2000/svg">
<mask id="mask0" mask-type="alpha" maskUnits="userSpaceOnUse" x="0" y="0" width="45" height="52">
<path opacity="0.92" d="M0.466675 17.9739C0.466675 16.3714 1.21339 14.8604 2.48638 13.8869L19.208 1.09981C21.0528 -0.310918 23.6139 -0.310919 25.4587 1.09981L42.1803 13.8869C43.4533 14.8604 44.2 16.3714 44.2 17.9739V33.4692C44.2 35.0717 43.4533 36.5828 42.1803 37.5563L25.4587 50.3433C23.6139 51.7541 21.0528 51.7541 19.208 50.3433L2.48638 37.5563C1.21339 36.5828 0.466675 35.0718 0.466675 33.4692V17.9739Z" fill="#171100"/>
</mask>
<g mask="url(#mask0)">
<g filter="url(#filter0_ii)">
<path d="M0.466675 17.9739C0.466675 16.3714 1.21339 14.8604 2.48638 13.8869L19.208 1.09981C21.0528 -0.310918 23.6139 -0.310919 25.4587 1.09981L42.1803 13.8869C43.4533 14.8604 44.2 16.3714 44.2 17.9739V33.4692C44.2 35.0717 43.4533 36.5828 42.1803 37.5563L25.4587 50.3433C23.6139 51.7541 21.0528 51.7541 19.208 50.3433L2.48638 37.5563C1.21339 36.5828 0.466675 35.0718 0.466675 33.4692V17.9739Z" fill="url(#paint0_radial)" fill-opacity="0.9"/>
</g>
<g filter="url(#filter1_iif)">
<path d="M44.2 34.7405V16.7027C44.2 15.9014 43.8266 15.1459 43.1901 14.6591L22.3333 -1.29019V52.7333L43.1901 36.784C43.8266 36.2973 44.2 35.5418 44.2 34.7405Z" fill="url(#paint1_radial)" fill-opacity="0.9"/>
</g>
<g filter="url(#filter2_iif)">
<path d="M19.208 1.09981L0.466675 15.4314L19.208 29.7629C21.0528 31.1737 23.6139 31.1737 25.4587 29.7629L44.2 15.4314L25.4587 1.09981C23.6139 -0.310919 21.0528 -0.310918 19.208 1.09981Z" fill="url(#paint2_radial)" fill-opacity="0.9"/>
</g>
</g>
<defs>
<filter id="filter0_ii" x="-0.8196" y="0.0417633" width="47.5922" height="53.9322" filterUnits="userSpaceOnUse" color-interpolation-filters="sRGB">
<feFlood flood-opacity="0" result="BackgroundImageFix"/>
<feBlend mode="normal" in="SourceGraphic" in2="BackgroundImageFix" result="shape"/>
<feColorMatrix in="SourceAlpha" type="matrix" values="0 0 0 0 0 0 0 0 0 0 0 0 0 0 0 0 0 0 127 0" result="hardAlpha"/>
<feOffset dx="2.57255" dy="2.57255"/>
<feGaussianBlur stdDeviation="6.43137"/>
<feComposite in2="hardAlpha" operator="arithmetic" k2="-1" k3="1"/>
<feColorMatrix type="matrix" values="0 0 0 0 0.815479 0 0 0 0 0.82293 0 0 0 0 0.904885 0 0 0 0.6 0"/>
<feBlend mode="normal" in2="shape" result="effect1_innerShadow"/>
<feColorMatrix in="SourceAlpha" type="matrix" values="0 0 0 0 0 0 0 0 0 0 0 0 0 0 0 0 0 0 127 0" result="hardAlpha"/>
<feOffset dx="-1.28627"/>
<feGaussianBlur stdDeviation="0.643137"/>
<feComposite in2="hardAlpha" operator="arithmetic" k2="-1" k3="1"/>
<feColorMatrix type="matrix" values="0 0 0 0 0.97 0 0 0 0 0.97 0 0 0 0 0.97 0 0 0 0.2 0"/>
<feBlend mode="normal" in2="effect1_innerShadow" result="effect2_innerShadow"/>
</filter>
<filter id="filter1_iif" x="19.7608" y="-3.86274" width="27.0118" height="59.1686" filterUnits="userSpaceOnUse" color-interpolation-filters="sRGB">
<feFlood flood-opacity="0" result="BackgroundImageFix"/>
<feBlend mode="normal" in="SourceGraphic" in2="BackgroundImageFix" result="shape"/>
<feColorMatrix in="SourceAlpha" type="matrix" values="0 0 0 0 0 0 0 0 0 0 0 0 0 0 0 0 0 0 127 0" result="hardAlpha"/>
<feOffset dx="2.57255" dy="2.57255"/>
<feGaussianBlur stdDeviation="10.2902"/>
<feComposite in2="hardAlpha" operator="arithmetic" k2="-1" k3="1"/>
<feColorMatrix type="matrix" values="0 0 0 0 0.783083 0 0 0 0 0.767481 0 0 0 0 0.76025 0 0 0 0.3 0"/>
<feBlend mode="normal" in2="shape" result="effect1_innerShadow"/>
<feColorMatrix in="SourceAlpha" type="matrix" values="0 0 0 0 0 0 0 0 0 0 0 0 0 0 0 0 0 0 127 0" result="hardAlpha"/>
<feOffset dx="-1.28627" dy="1.28627"/>
<feGaussianBlur stdDeviation="0.643137"/>
<feComposite in2="hardAlpha" operator="arithmetic" k2="-1" k3="1"/>
<feColorMatrix type="matrix" values="0 0 0 0 0.97 0 0 0 0 0.97 0 0 0 0 0.97 0 0 0 0.5 0"/>
<feBlend mode="normal" in2="effect1_innerShadow" result="effect2_innerShadow"/>
<feGaussianBlur stdDeviation="1.28627" result="effect3_foregroundBlur"/>
</filter>
<filter id="filter2_iif" x="-0.8196" y="-1.24451" width="47.5922" height="34.638" filterUnits="userSpaceOnUse" color-interpolation-filters="sRGB">
<feFlood flood-opacity="0" result="BackgroundImageFix"/>
<feBlend mode="normal" in="SourceGraphic" in2="BackgroundImageFix" result="shape"/>
<feColorMatrix in="SourceAlpha" type="matrix" values="0 0 0 0 0 0 0 0 0 0 0 0 0 0 0 0 0 0 127 0" result="hardAlpha"/>
<feOffset dx="2.57255" dy="2.57255"/>
<feGaussianBlur stdDeviation="3.85882"/>
<feComposite in2="hardAlpha" operator="arithmetic" k2="-1" k3="1"/>
<feColorMatrix type="matrix" values="0 0 0 0 0.858292 0 0 0 0 0.848099 0 0 0 0 0.843375 0 0 0 0.6 0"/>
<feBlend mode="normal" in2="shape" result="effect1_innerShadow"/>
<feColorMatrix in="SourceAlpha" type="matrix" values="0 0 0 0 0 0 0 0 0 0 0 0 0 0 0 0 0 0 127 0" result="hardAlpha"/>
<feOffset dx="-2.57255"/>
<feGaussianBlur stdDeviation="0.643137"/>
<feComposite in2="hardAlpha" operator="arithmetic" k2="-1" k3="1"/>
<feColorMatrix type="matrix" values="0 0 0 0 0.99 0 0 0 0 0.99 0 0 0 0 0.99 0 0 0 0.8 0"/>
<feBlend mode="normal" in2="effect1_innerShadow" result="effect2_innerShadow"/>
<feGaussianBlur stdDeviation="0.643137" result="effect3_foregroundBlur"/>
</filter>
<radialGradient id="paint0_radial" cx="0" cy="0" r="1" gradientUnits="userSpaceOnUse" gradientTransform="translate(33.0156 31.298) rotate(-113.885) scale(105.746 3435.56)">
<stop stop-color="#EAE8E8"/>
<stop offset="1" stop-color="#EEEDEC"/>
</radialGradient>
<radialGradient id="paint1_radial" cx="0" cy="0" r="1" gradientUnits="userSpaceOnUse" gradientTransform="translate(48.702 62.3806) rotate(-136.273) scale(81.8783 1943.2)">
<stop stop-color="#E8E6E6"/>
<stop offset="1" stop-color="#D6D3D1"/>
</radialGradient>
<radialGradient id="paint2_radial" cx="0" cy="0" r="1" gradientUnits="userSpaceOnUse" gradientTransform="translate(39.6978 23.085) rotate(-156.43) scale(56.1337 1223.95)">
<stop stop-color="#F7F7F7"/>
<stop offset="1" stop-color="#EAE8E8"/>
</radialGradient>
</defs>
</svg>
